<mxfile host="app.diagrams.net" modified="2023-05-23T02:33:20.664Z" agent="Mozilla/5.0 (Windows NT 10.0; Win64; x64) AppleWebKit/537.36 (KHTML, like Gecko) Chrome/113.0.0.0 Safari/537.36" etag="1a4qsbQ8pxxrmdRa9W-t" version="21.2.9" type="github">
  <diagram name="Página-1" id="d4zxZqDhFM-7n8wzmK1U">
    <mxGraphModel dx="1280" dy="1353" grid="0" gridSize="10" guides="1" tooltips="1" connect="1" arrows="1" fold="1" page="0" pageScale="1" pageWidth="827" pageHeight="1169" math="0" shadow="0">
      <root>
        <mxCell id="0" />
        <mxCell id="1" parent="0" />
        <mxCell id="OSFgWPU8ku9xLSu_yliL-6" style="edgeStyle=none;curved=1;rounded=0;orthogonalLoop=1;jettySize=auto;html=1;fontSize=12;startSize=8;endSize=8;" edge="1" parent="1" source="OSFgWPU8ku9xLSu_yliL-1">
          <mxGeometry relative="1" as="geometry">
            <mxPoint x="175.5" y="-386" as="targetPoint" />
          </mxGeometry>
        </mxCell>
        <mxCell id="OSFgWPU8ku9xLSu_yliL-1" value="INICIO" style="ellipse;whiteSpace=wrap;html=1;fontSize=16;" vertex="1" parent="1">
          <mxGeometry x="106" y="-487" width="139" height="42" as="geometry" />
        </mxCell>
        <mxCell id="OSFgWPU8ku9xLSu_yliL-10" style="edgeStyle=none;curved=1;rounded=0;orthogonalLoop=1;jettySize=auto;html=1;exitX=0.5;exitY=1;exitDx=0;exitDy=0;fontSize=12;startSize=8;endSize=8;" edge="1" parent="1" source="OSFgWPU8ku9xLSu_yliL-3">
          <mxGeometry relative="1" as="geometry">
            <mxPoint x="176" y="-244" as="targetPoint" />
          </mxGeometry>
        </mxCell>
        <mxCell id="OSFgWPU8ku9xLSu_yliL-3" value="QANTIDADE INICIAL DE PEÇAS" style="shape=manualInput;whiteSpace=wrap;html=1;fontSize=16;" vertex="1" parent="1">
          <mxGeometry x="107.5" y="-382" width="136" height="104" as="geometry" />
        </mxCell>
        <mxCell id="OSFgWPU8ku9xLSu_yliL-16" value="VERDADEIRO/SIM" style="edgeStyle=none;curved=1;rounded=0;orthogonalLoop=1;jettySize=auto;html=1;fontSize=12;startSize=8;endSize=8;" edge="1" parent="1" source="OSFgWPU8ku9xLSu_yliL-7">
          <mxGeometry relative="1" as="geometry">
            <mxPoint x="-43" y="-158.5" as="targetPoint" />
          </mxGeometry>
        </mxCell>
        <mxCell id="OSFgWPU8ku9xLSu_yliL-7" value="DESEJA ADICIONAR&amp;nbsp;&lt;br&gt;(SOMAR) PEÇAS?" style="rhombus;whiteSpace=wrap;html=1;fontSize=16;" vertex="1" parent="1">
          <mxGeometry x="106" y="-223" width="132" height="125" as="geometry" />
        </mxCell>
        <mxCell id="OSFgWPU8ku9xLSu_yliL-11" value="SOMAR A QTD INICIAL&lt;br&gt;COM A INFORMADA" style="rounded=0;whiteSpace=wrap;html=1;fontSize=16;" vertex="1" parent="1">
          <mxGeometry x="-234" y="-196.5" width="167" height="76" as="geometry" />
        </mxCell>
        <mxCell id="OSFgWPU8ku9xLSu_yliL-12" value="SUBTRAIR A QTD INICIAL COM A&lt;br&gt;INFORMADA" style="rounded=0;whiteSpace=wrap;html=1;fontSize=16;" vertex="1" parent="1">
          <mxGeometry x="379" y="-193.5" width="175" height="70" as="geometry" />
        </mxCell>
        <mxCell id="OSFgWPU8ku9xLSu_yliL-13" style="edgeStyle=none;curved=1;rounded=0;orthogonalLoop=1;jettySize=auto;html=1;exitX=0.5;exitY=1;exitDx=0;exitDy=0;fontSize=12;startSize=8;endSize=8;" edge="1" parent="1" source="OSFgWPU8ku9xLSu_yliL-12" target="OSFgWPU8ku9xLSu_yliL-12">
          <mxGeometry relative="1" as="geometry" />
        </mxCell>
        <mxCell id="OSFgWPU8ku9xLSu_yliL-17" value="SIM/NÃO" style="endArrow=classic;html=1;rounded=0;fontSize=12;startSize=8;endSize=8;curved=1;" edge="1" parent="1">
          <mxGeometry relative="1" as="geometry">
            <mxPoint x="239.5" y="-157" as="sourcePoint" />
            <mxPoint x="361.5" y="-155" as="targetPoint" />
            <Array as="points">
              <mxPoint x="311.5" y="-157" />
            </Array>
          </mxGeometry>
        </mxCell>
        <mxCell id="OSFgWPU8ku9xLSu_yliL-34" style="edgeStyle=none;curved=1;rounded=0;orthogonalLoop=1;jettySize=auto;html=1;exitX=0;exitY=0;exitDx=106.375;exitDy=77;exitPerimeter=0;fontSize=12;startSize=8;endSize=8;" edge="1" parent="1" source="OSFgWPU8ku9xLSu_yliL-19">
          <mxGeometry relative="1" as="geometry">
            <mxPoint x="181" y="124" as="targetPoint" />
          </mxGeometry>
        </mxCell>
        <mxCell id="OSFgWPU8ku9xLSu_yliL-19" value="RESULTADO" style="shape=display;whiteSpace=wrap;html=1;fontSize=16;" vertex="1" parent="1">
          <mxGeometry x="75" y="-4" width="201" height="77" as="geometry" />
        </mxCell>
        <mxCell id="OSFgWPU8ku9xLSu_yliL-24" value="" style="endArrow=none;html=1;rounded=0;fontSize=12;startSize=8;endSize=8;curved=1;" edge="1" parent="1">
          <mxGeometry width="50" height="50" relative="1" as="geometry">
            <mxPoint x="-155" y="33" as="sourcePoint" />
            <mxPoint x="-155" y="-119" as="targetPoint" />
          </mxGeometry>
        </mxCell>
        <mxCell id="OSFgWPU8ku9xLSu_yliL-26" value="" style="endArrow=classic;html=1;rounded=0;fontSize=12;startSize=8;endSize=8;curved=1;" edge="1" parent="1">
          <mxGeometry width="50" height="50" relative="1" as="geometry">
            <mxPoint x="-154" y="33" as="sourcePoint" />
            <mxPoint x="41" y="33" as="targetPoint" />
          </mxGeometry>
        </mxCell>
        <mxCell id="OSFgWPU8ku9xLSu_yliL-28" value="" style="endArrow=none;html=1;rounded=0;fontSize=12;startSize=8;endSize=8;curved=1;" edge="1" parent="1">
          <mxGeometry width="50" height="50" relative="1" as="geometry">
            <mxPoint x="471" y="39" as="sourcePoint" />
            <mxPoint x="471" y="-122" as="targetPoint" />
          </mxGeometry>
        </mxCell>
        <mxCell id="OSFgWPU8ku9xLSu_yliL-30" value="" style="endArrow=classic;html=1;rounded=0;fontSize=12;startSize=8;endSize=8;curved=1;" edge="1" parent="1">
          <mxGeometry width="50" height="50" relative="1" as="geometry">
            <mxPoint x="471" y="40" as="sourcePoint" />
            <mxPoint x="320" y="43" as="targetPoint" />
          </mxGeometry>
        </mxCell>
        <mxCell id="OSFgWPU8ku9xLSu_yliL-32" value="FIM" style="ellipse;whiteSpace=wrap;html=1;fontSize=16;" vertex="1" parent="1">
          <mxGeometry x="97" y="127" width="174" height="80" as="geometry" />
        </mxCell>
      </root>
    </mxGraphModel>
  </diagram>
</mxfile>
